# xmcd CD database file
#
# Track frame offsets:
#	182
#	2868
#	15668
#	21808
#	32760
#	37383
#	42473
#	52565
#	65070
#	72073
#	79268
#	88095
#	90228
#	116705
#	121723
#	132118
#	142315
#	156148
#	161988
#	163520
#	173313
#	180825
#	185598
#
# Disc length: 2790 seconds
#
# Revision: 4
# Processed by: cddbd v1.5.2PL0 Copyright (c) Steve Scherf et al.
# Submitted via: CDex 1.70beta2
#
DISCID=2a0ae417
DTITLE=Jim Morrison - An American Prayer
DYEAR=1978
DGENRE=Rock
TTITLE0=Awake
TTITLE1=Ghost Song
TTITLE2=Dawn's Highway
TTITLE3=Newborn Awakening
TTITLE4=To Come Of Age
TTITLE5=Black Polished Chrome
TTITLE6=Latino Chrome
TTITLE7=Angels and Sailors
TTITLE8=Stoned Immaculate
TTITLE9=The Movie
TTITLE10=Curses, Invocations
TTITLE11=American Night
TTITLE12=Roadhouse Blues
TTITLE13=The World On Fire
TTITLE14=Lament
TTITLE15=The Hitchhiker
TTITLE16=An American Prayer
TTITLE17=Hour For Magic
TTITLE18=Freedom Exists
TTITLE19=A Feast Of Friends
TTITLE20=Babylon Fading
TTITLE21=Bird Of Prey
TTITLE22=The Ghost Song
EXTD=YEAR: 1978
EXTT0=
EXTT1=
EXTT2=
EXTT3=
EXTT4=
EXTT5=
EXTT6=
EXTT7=
EXTT8=
EXTT9=
EXTT10=
EXTT11=
EXTT12=
EXTT13=
EXTT14=
EXTT15=
EXTT16=
EXTT17=
EXTT18=
EXTT19=
EXTT20=
EXTT21=
EXTT22=
PLAYORDER=
